<svg width="23" height="23" viewBox="0 0 23 23" fill="none" xmlns="http://www.w3.org/2000/svg">
<g filter="url(#filter0_d_112_414)">
<path d="M7.25 4.25H6.5C6.10218 4.25 5.72064 4.40804 5.43934 4.68934C5.15804 4.97064 5 5.35218 5 5.75V12.5C5 12.8978 5.15804 13.2794 5.43934 13.5607C5.72064 13.842 6.10218 14 6.5 14H13.25C13.6478 14 14.0294 13.842 14.3107 13.5607C14.592 13.2794 14.75 12.8978 14.75 12.5V11.75" stroke="#052659" stroke-linecap="round" stroke-linejoin="round" shape-rendering="crispEdges"/>
</g>
<g filter="url(#filter1_d_112_414)">
<path d="M14 2.74999L16.25 4.99999M17.2888 3.93874C17.5841 3.64335 17.7501 3.24273 17.7501 2.82499C17.7501 2.40725 17.5841 2.00662 17.2888 1.71124C16.9934 1.41585 16.5927 1.24991 16.175 1.24991C15.7573 1.24991 15.3566 1.41585 15.0613 1.71124L8.75 7.99999V10.25H11L17.2888 3.93874Z" stroke="#052659" stroke-linecap="round" stroke-linejoin="round" shape-rendering="crispEdges"/>
</g>
<defs>
<filter id="filter0_d_112_414" x="0.5" y="3.75" width="18.75" height="18.75" filterUnits="userSpaceOnUse" color-interpolation-filters="sRGB">
<feFlood flood-opacity="0" result="BackgroundImageFix"/>
<feColorMatrix in="SourceAlpha" type="matrix" values="0 0 0 0 0 0 0 0 0 0 0 0 0 0 0 0 0 0 127 0" result="hardAlpha"/>
<feOffset dy="4"/>
<feGaussianBlur stdDeviation="2"/>
<feComposite in2="hardAlpha" operator="out"/>
<feColorMatrix type="matrix" values="0 0 0 0 0 0 0 0 0 0 0 0 0 0 0 0 0 0 0.25 0"/>
<feBlend mode="normal" in2="BackgroundImageFix" result="effect1_dropShadow_112_414"/>
<feBlend mode="normal" in="SourceGraphic" in2="effect1_dropShadow_112_414" result="shape"/>
</filter>
<filter id="filter1_d_112_414" x="4.25" y="0.749908" width="18" height="18.0001" filterUnits="userSpaceOnUse" color-interpolation-filters="sRGB">
<feFlood flood-opacity="0" result="BackgroundImageFix"/>
<feColorMatrix in="SourceAlpha" type="matrix" values="0 0 0 0 0 0 0 0 0 0 0 0 0 0 0 0 0 0 127 0" result="hardAlpha"/>
<feOffset dy="4"/>
<feGaussianBlur stdDeviation="2"/>
<feComposite in2="hardAlpha" operator="out"/>
<feColorMatrix type="matrix" values="0 0 0 0 0 0 0 0 0 0 0 0 0 0 0 0 0 0 0.25 0"/>
<feBlend mode="normal" in2="BackgroundImageFix" result="effect1_dropShadow_112_414"/>
<feBlend mode="normal" in="SourceGraphic" in2="effect1_dropShadow_112_414" result="shape"/>
</filter>
</defs>
</svg>
