<svg width="531" height="413" viewBox="0 0 531 413" fill="none" xmlns="http://www.w3.org/2000/svg">
<path d="M450.141 20.668H60.4414V339.898H450.141V20.668Z" fill="#808080" stroke="#263238" stroke-linecap="round" stroke-linejoin="round"/>
<path d="M450.141 20.668H60.4414V26.9426H450.141V20.668Z" fill="#263238" stroke="#263238" stroke-linecap="round" stroke-linejoin="round"/>
<path d="M128.902 2.35742H90.4219V17.8842H128.902V2.35742Z" fill="#263238" stroke="#263238" stroke-linecap="round" stroke-linejoin="round"/>
<path d="M172.095 1H166.699V17.873H172.095V1Z" fill="#263238" stroke="#263238" stroke-linecap="round" stroke-linejoin="round"/>
<path d="M454.887 10.8911H55.6953V23.4175H454.887V10.8911Z" fill="white" stroke="#263238" stroke-linecap="round" stroke-linejoin="round"/>
<path d="M136.692 48.9609H84.3047V119.556H136.692V48.9609Z" fill="#263238" stroke="#263238" stroke-linecap="round" stroke-linejoin="round"/>
<path d="M117.415 52.748H111.438V69.1419H117.415V52.748Z" fill="white" stroke="#263238" stroke-linecap="round" stroke-linejoin="round"/>
<path d="M109.556 52.748H103.578V69.1419H109.556V52.748Z" fill="white" stroke="#263238" stroke-linecap="round" stroke-linejoin="round"/>
<path d="M133.378 52.748H127.172V69.1419H133.378V52.748Z" fill="white" stroke="#263238" stroke-linecap="round" stroke-linejoin="round"/>
<path d="M101.697 52.748H95.7188V69.1419H101.697V52.748Z" fill="white" stroke="#263238" stroke-linecap="round" stroke-linejoin="round"/>
<path d="M125.287 52.748H119.309V69.1419H125.287V52.748Z" fill="white" stroke="#263238" stroke-linecap="round" stroke-linejoin="round"/>
<path d="M133.373 73.5459H113.477V115.78H133.373V73.5459Z" fill="white" stroke="#263238" stroke-linecap="round" stroke-linejoin="round"/>
<path d="M93.8233 52.7485H87.6172V69.1424H93.8233V52.7485Z" fill="white" stroke="#263238" stroke-linecap="round" stroke-linejoin="round"/>
<path d="M107.513 73.5459H87.6172V115.78H107.513V73.5459Z" fill="white" stroke="#263238" stroke-linecap="round" stroke-linejoin="round"/>
<path d="M92.6903 96.146L90.0664 98.2566" stroke="#263238" stroke-linecap="round" stroke-linejoin="round"/>
<path d="M107.624 84.0874L95.9531 93.5107" stroke="#263238" stroke-linecap="round" stroke-linejoin="round"/>
<path d="M117.691 96.146L115.078 98.2566" stroke="#263238" stroke-linecap="round" stroke-linejoin="round"/>
<path d="M132.62 84.0874L120.961 93.5107" stroke="#263238" stroke-linecap="round" stroke-linejoin="round"/>
<path d="M277.989 48.9609H225.602V119.556H277.989V48.9609Z" fill="#263238" stroke="#263238" stroke-linecap="round" stroke-linejoin="round"/>
<path d="M258.708 52.7485H252.73V69.1424H258.708V52.7485Z" fill="white" stroke="#263238" stroke-linecap="round" stroke-linejoin="round"/>
<path d="M250.845 52.748H244.867V69.1419H250.845V52.748Z" fill="white" stroke="#263238" stroke-linecap="round" stroke-linejoin="round"/>
<path d="M274.667 52.7485H268.461V69.1424H274.667V52.7485Z" fill="white" stroke="#263238" stroke-linecap="round" stroke-linejoin="round"/>
<path d="M242.986 52.7485H237.008V69.1424H242.986V52.7485Z" fill="white" stroke="#263238" stroke-linecap="round" stroke-linejoin="round"/>
<path d="M266.568 52.748H260.59V69.1419H266.568V52.748Z" fill="white" stroke="#263238" stroke-linecap="round" stroke-linejoin="round"/>
<path d="M274.67 73.5459H254.773V115.78H274.67V73.5459Z" fill="white" stroke="#263238" stroke-linecap="round" stroke-linejoin="round"/>
<path d="M235.112 52.748H228.906V69.1419H235.112V52.748Z" fill="white" stroke="#263238" stroke-linecap="round" stroke-linejoin="round"/>
<path d="M248.802 73.5459H228.906V115.78H248.802V73.5459Z" fill="white" stroke="#263238" stroke-linecap="round" stroke-linejoin="round"/>
<path d="M233.429 96.146L230.805 98.2566" stroke="#263238" stroke-linecap="round" stroke-linejoin="round"/>
<path d="M248.347 84.0874L236.688 93.5107" stroke="#263238" stroke-linecap="round" stroke-linejoin="round"/>
<path d="M259.061 96.146L256.438 98.2566" stroke="#263238" stroke-linecap="round" stroke-linejoin="round"/>
<path d="M273.995 84.0874L262.324 93.5107" stroke="#263238" stroke-linecap="round" stroke-linejoin="round"/>
<path d="M420.122 48.9609H367.734V119.556H420.122V48.9609Z" fill="#263238" stroke="#263238" stroke-linecap="round" stroke-linejoin="round"/>
<path d="M400.857 52.748H394.879V69.1419H400.857V52.748Z" fill="white" stroke="#263238" stroke-linecap="round" stroke-linejoin="round"/>
<path d="M392.998 52.7485H387.02V69.1424H392.998V52.7485Z" fill="white" stroke="#263238" stroke-linecap="round" stroke-linejoin="round"/>
<path d="M416.808 52.748H410.602V69.1419H416.808V52.748Z" fill="white" stroke="#263238" stroke-linecap="round" stroke-linejoin="round"/>
<path d="M385.134 52.7485H379.156V69.1424H385.134V52.7485Z" fill="white" stroke="#263238" stroke-linecap="round" stroke-linejoin="round"/>
<path d="M408.716 52.748H402.738V69.1419H408.716V52.748Z" fill="white" stroke="#263238" stroke-linecap="round" stroke-linejoin="round"/>
<path d="M416.818 73.5459H396.922V115.78H416.818V73.5459Z" fill="white" stroke="#263238" stroke-linecap="round" stroke-linejoin="round"/>
<path d="M377.261 52.748H371.055V69.1419H377.261V52.748Z" fill="white" stroke="#263238" stroke-linecap="round" stroke-linejoin="round"/>
<path d="M390.951 73.5459H371.055V115.78H390.951V73.5459Z" fill="white" stroke="#263238" stroke-linecap="round" stroke-linejoin="round"/>
<path d="M376.898 96.146L374.285 98.2566" stroke="#263238" stroke-linecap="round" stroke-linejoin="round"/>
<path d="M391.831 84.0874L380.172 93.5107" stroke="#263238" stroke-linecap="round" stroke-linejoin="round"/>
<path d="M402.546 96.146L399.922 98.2566" stroke="#263238" stroke-linecap="round" stroke-linejoin="round"/>
<path d="M417.468 84.0874L405.809 93.5107" stroke="#263238" stroke-linecap="round" stroke-linejoin="round"/>
<path d="M450.258 134.479H60.5703V403.363H450.258V134.479Z" fill="#052659" stroke="#263238" stroke-linecap="round" stroke-linejoin="round"/>
<path d="M293.49 251.677H210.266V403.363H293.49V251.677Z" fill="#06468A" stroke="#263238" stroke-linecap="round" stroke-linejoin="round"/>
<path d="M215.948 386.866H286.771V377.169H215.948H286.771V367.472H215.948H286.771V357.775H215.948H286.771V348.078H215.948H286.771V346.48H215.742V394.943H286.771V386.866H215.948Z" fill="#D6D6D6" stroke="#263238" stroke-width="0.771756" stroke-linecap="round" stroke-linejoin="round"/>
<path d="M215.948 328.683H286.771V318.986H215.948H286.771V309.289H215.948H286.771V299.592H215.948H286.771V289.895H215.948H286.771V280.198H215.948H286.771V270.5H215.948H286.771V260.803H215.948H286.771V259.046H215.742V338.05H286.771V328.683H215.948Z" fill="#D6D6D6" stroke="#263238" stroke-width="0.771756" stroke-linecap="round" stroke-linejoin="round"/>
<path d="M291.121 319.477H288.52V347.188H291.121V319.477Z" fill="#263238" stroke="#263238" stroke-linecap="round" stroke-linejoin="round"/>
<path d="M240.891 307.065L250.884 294.367L261.654 307.441" stroke="#263238" stroke-linecap="round" stroke-linejoin="round"/>
<path d="M266.649 305.136H234.352V322.055H266.649V305.136Z" fill="white" stroke="#263238" stroke-linecap="round" stroke-linejoin="round"/>
<path d="M240.715 317.514C240.536 317.733 240.306 317.906 240.046 318.017C239.786 318.128 239.503 318.175 239.221 318.153C238.929 318.173 238.637 318.122 238.371 318.002C238.104 317.883 237.871 317.7 237.692 317.469C237.323 316.884 237.147 316.197 237.19 315.507V311.491C237.19 310.122 237.544 309.209 238.262 308.924C238.567 308.789 238.898 308.723 239.232 308.73C240.521 308.73 241.171 309.551 241.171 311.183V312.449H239.814V311.308C239.836 310.965 239.794 310.62 239.688 310.293C239.656 310.197 239.592 310.115 239.507 310.059C239.423 310.003 239.322 309.977 239.221 309.985C239.117 309.977 239.013 310.004 238.926 310.062C238.839 310.12 238.774 310.205 238.741 310.304C238.634 310.624 238.588 310.96 238.605 311.297V315.598C238.582 315.96 238.625 316.323 238.73 316.67C238.766 316.767 238.832 316.85 238.918 316.908C239.004 316.965 239.106 316.994 239.209 316.99C239.314 316.993 239.417 316.963 239.503 316.903C239.589 316.844 239.654 316.758 239.688 316.659C239.788 316.311 239.83 315.948 239.814 315.586V314.274H241.194V315.575C241.238 316.255 241.071 316.933 240.715 317.514Z" fill="#263238"/>
<path d="M242.383 318.05V308.844H243.786V316.83H245.554V318.028L242.383 318.05Z" fill="#263238"/>
<path d="M249.843 317.492C249.661 317.721 249.425 317.901 249.156 318.017C248.888 318.132 248.594 318.179 248.303 318.154C248.01 318.178 247.715 318.131 247.445 318.016C247.175 317.9 246.936 317.72 246.751 317.492C246.379 316.887 246.203 316.182 246.249 315.473V311.309C246.249 309.62 246.945 308.776 248.326 308.776C248.613 308.75 248.903 308.794 249.17 308.905C249.436 309.017 249.671 309.192 249.855 309.415C250.206 309.981 250.37 310.644 250.322 311.309V315.518C250.366 316.21 250.199 316.898 249.843 317.492ZM247.79 316.625C247.827 316.726 247.896 316.812 247.987 316.869C248.077 316.927 248.184 316.954 248.292 316.944C248.4 316.955 248.51 316.928 248.601 316.867C248.692 316.807 248.76 316.718 248.794 316.614C248.896 316.242 248.939 315.857 248.919 315.473V311.195C248.934 310.874 248.892 310.553 248.794 310.248C248.759 310.151 248.693 310.068 248.606 310.012C248.52 309.957 248.417 309.931 248.314 309.94C248.209 309.932 248.104 309.957 248.013 310.012C247.923 310.068 247.853 310.15 247.812 310.248C247.699 310.55 247.648 310.872 247.664 311.195V315.496C247.628 315.873 247.651 316.254 247.733 316.625H247.79Z" fill="#263238"/>
<path d="M251.362 315.461V314.64H252.686V315.564C252.664 315.93 252.711 316.298 252.823 316.647C252.86 316.745 252.928 316.828 253.016 316.884C253.105 316.94 253.209 316.965 253.313 316.956C253.409 316.968 253.507 316.951 253.593 316.906C253.679 316.861 253.748 316.791 253.792 316.705C253.885 316.433 253.924 316.146 253.906 315.86C253.914 315.511 253.843 315.164 253.701 314.845C253.526 314.514 253.303 314.21 253.039 313.944L252.355 313.248C252.052 312.945 251.802 312.594 251.613 312.21C251.433 311.824 251.344 311.403 251.351 310.978C251.308 310.382 251.46 309.79 251.784 309.289C251.977 309.085 252.214 308.928 252.477 308.831C252.741 308.734 253.023 308.7 253.302 308.73C253.58 308.695 253.862 308.738 254.117 308.852C254.373 308.967 254.592 309.15 254.751 309.38C255.036 309.965 255.166 310.613 255.127 311.263V311.833H253.838V311.171C253.856 310.848 253.818 310.523 253.724 310.213C253.692 310.122 253.631 310.044 253.551 309.991C253.471 309.937 253.375 309.911 253.279 309.917C253.188 309.909 253.096 309.927 253.014 309.967C252.932 310.007 252.862 310.068 252.811 310.145C252.703 310.348 252.651 310.576 252.663 310.806C252.656 311.047 252.707 311.286 252.811 311.502C252.965 311.746 253.145 311.971 253.347 312.175L254.1 312.997C254.452 313.364 254.744 313.783 254.967 314.24C255.162 314.678 255.259 315.153 255.253 315.632C255.296 316.296 255.146 316.958 254.819 317.537C254.634 317.763 254.394 317.938 254.123 318.046C253.852 318.154 253.557 318.191 253.268 318.153C252.977 318.185 252.683 318.138 252.416 318.018C252.149 317.897 251.919 317.708 251.75 317.469C251.443 316.847 251.309 316.153 251.362 315.461Z" fill="#263238"/>
<path d="M256.277 318.05V308.844H259.369V310.053H257.681V312.723H259.278V313.863H257.681V316.795H259.426V318.005L256.277 318.05Z" fill="#263238"/>
<path d="M260.543 318.051V308.844H262.608C262.883 308.819 263.16 308.859 263.416 308.963C263.672 309.066 263.899 309.229 264.08 309.437C264.42 309.962 264.58 310.582 264.536 311.206V315.358C264.588 316.071 264.425 316.782 264.068 317.401C263.89 317.627 263.658 317.806 263.392 317.919C263.127 318.033 262.838 318.078 262.551 318.051H260.543ZM261.946 316.91H262.403C262.51 316.921 262.617 316.903 262.715 316.859C262.814 316.815 262.898 316.746 262.962 316.659C263.112 316.38 263.176 316.062 263.144 315.746V311.183C263.17 310.836 263.111 310.487 262.973 310.168C262.911 310.065 262.822 309.981 262.715 309.927C262.608 309.872 262.488 309.849 262.368 309.86H261.958L261.946 316.91Z" fill="#263238"/>
<path d="M442.474 251.813H316.582V403.363H442.474V251.813Z" fill="#D6D6D6" stroke="#263238" stroke-linecap="round" stroke-linejoin="round"/>
<path d="M316.961 396.734H442.533" stroke="#263238" stroke-linecap="round" stroke-linejoin="round"/>
<path d="M316.961 387.037H442.533" stroke="#263238" stroke-linecap="round" stroke-linejoin="round"/>
<path d="M316.961 377.34H442.533" stroke="#263238" stroke-linecap="round" stroke-linejoin="round"/>
<path d="M316.961 367.643H442.533" stroke="#263238" stroke-linecap="round" stroke-linejoin="round"/>
<path d="M316.961 357.946H442.533" stroke="#263238" stroke-linecap="round" stroke-linejoin="round"/>
<path d="M316.961 348.249H442.533" stroke="#263238" stroke-linecap="round" stroke-linejoin="round"/>
<path d="M316.961 338.552H442.533" stroke="#263238" stroke-linecap="round" stroke-linejoin="round"/>
<path d="M316.961 328.854H442.533" stroke="#263238" stroke-linecap="round" stroke-linejoin="round"/>
<path d="M316.961 319.157H442.533" stroke="#263238" stroke-linecap="round" stroke-linejoin="round"/>
<path d="M316.961 309.46H442.533" stroke="#263238" stroke-linecap="round" stroke-linejoin="round"/>
<path d="M316.961 299.763H442.533" stroke="#263238" stroke-linecap="round" stroke-linejoin="round"/>
<path d="M316.961 290.066H442.533" stroke="#263238" stroke-linecap="round" stroke-linejoin="round"/>
<path d="M316.961 280.369H442.533" stroke="#263238" stroke-linecap="round" stroke-linejoin="round"/>
<path d="M316.961 270.671H442.533" stroke="#263238" stroke-linecap="round" stroke-linejoin="round"/>
<path d="M316.961 260.975H442.533" stroke="#263238" stroke-linecap="round" stroke-linejoin="round"/>
<path d="M189.115 251.813H69.8633V403.363H189.115V251.813Z" fill="#D6D6D6" stroke="#263238" stroke-linecap="round" stroke-linejoin="round"/>
<path d="M70.2188 396.734H189.163" stroke="#263238" stroke-linecap="round" stroke-linejoin="round"/>
<path d="M70.2188 387.037H189.163" stroke="#263238" stroke-linecap="round" stroke-linejoin="round"/>
<path d="M70.2188 377.34H189.163" stroke="#263238" stroke-linecap="round" stroke-linejoin="round"/>
<path d="M70.2188 367.643H189.163" stroke="#263238" stroke-linecap="round" stroke-linejoin="round"/>
<path d="M70.2188 357.946H189.163" stroke="#263238" stroke-linecap="round" stroke-linejoin="round"/>
<path d="M70.2188 348.249H189.163" stroke="#263238" stroke-linecap="round" stroke-linejoin="round"/>
<path d="M70.2188 338.552H189.163" stroke="#263238" stroke-linecap="round" stroke-linejoin="round"/>
<path d="M70.2188 328.854H189.163" stroke="#263238" stroke-linecap="round" stroke-linejoin="round"/>
<path d="M70.2188 319.157H189.163" stroke="#263238" stroke-linecap="round" stroke-linejoin="round"/>
<path d="M70.2188 309.46H189.163" stroke="#263238" stroke-linecap="round" stroke-linejoin="round"/>
<path d="M70.2188 299.763H189.163" stroke="#263238" stroke-linecap="round" stroke-linejoin="round"/>
<path d="M70.2188 290.066H189.163" stroke="#263238" stroke-linecap="round" stroke-linejoin="round"/>
<path d="M70.2188 280.369H189.163" stroke="#263238" stroke-linecap="round" stroke-linejoin="round"/>
<path d="M70.2188 270.671H189.163" stroke="#263238" stroke-linecap="round" stroke-linejoin="round"/>
<path d="M70.2188 260.975H189.163" stroke="#263238" stroke-linecap="round" stroke-linejoin="round"/>
<path opacity="0.3" d="M450.254 223.076H61.4102V274.607H450.254V223.076Z" fill="black"/>
<path d="M447.209 205.712H63.8867V257.244H447.209V205.712Z" fill="white" stroke="#263238" stroke-linecap="round" stroke-linejoin="round"/>
<path d="M102 205.712H84.3516V257.244H102V205.712Z" fill="#06468A" stroke="#263238" stroke-linecap="round" stroke-linejoin="round"/>
<path d="M139.411 205.712H121.762V257.244H139.411V205.712Z" fill="#06468A" stroke="#263238" stroke-linecap="round" stroke-linejoin="round"/>
<path d="M176.828 205.712H159.18V257.244H176.828V205.712Z" fill="#06468A" stroke="#263238" stroke-linecap="round" stroke-linejoin="round"/>
<path d="M212.414 205.712H194.766V257.244H212.414V205.712Z" fill="#06468A" stroke="#263238" stroke-linecap="round" stroke-linejoin="round"/>
<path d="M247.996 205.712H230.348V257.244H247.996V205.712Z" fill="#06468A" stroke="#263238" stroke-linecap="round" stroke-linejoin="round"/>
<path d="M283.59 205.712H265.941V257.244H283.59V205.712Z" fill="#06468A" stroke="#263238" stroke-linecap="round" stroke-linejoin="round"/>
<path d="M319.172 205.712H301.523V257.244H319.172V205.712Z" fill="#06468A" stroke="#263238" stroke-linecap="round" stroke-linejoin="round"/>
<path d="M354.754 205.712H337.105V257.244H354.754V205.712Z" fill="#06468A" stroke="#263238" stroke-linecap="round" stroke-linejoin="round"/>
<path d="M390.352 205.712H372.703V257.244H390.352V205.712Z" fill="#06468A" stroke="#263238" stroke-linecap="round" stroke-linejoin="round"/>
<path d="M425.93 205.712H408.281V257.244H425.93V205.712Z" fill="#06468A" stroke="#263238" stroke-linecap="round" stroke-linejoin="round"/>
<path d="M86.9783 134.478L80.293 192.684L105.426 134.478H86.9783Z" fill="#06468A" stroke="#263238" stroke-linecap="round" stroke-linejoin="round"/>
<path d="M129.614 134.479L77.5 205.256L156.8 134.479H129.614Z" fill="#06468A" stroke="#263238" stroke-linecap="round" stroke-linejoin="round"/>
<path d="M296.481 134.479L101.227 198.274L422.749 134.479H296.481Z" fill="#06468A" stroke="#263238" stroke-linecap="round" stroke-linejoin="round"/>
<path d="M178.666 134.479L92.1562 199.666L229.57 134.479H178.666Z" fill="#06468A" stroke="#263238" stroke-linecap="round" stroke-linejoin="round"/>
<path d="M171.755 290.203H88.9414V348.956H171.755V290.203Z" fill="#06468A" stroke="#263238" stroke-width="0.895581" stroke-linecap="round" stroke-linejoin="round"/>
<path d="M104.676 302.718C104.676 300.539 105.817 299.295 107.927 299.295C110.038 299.295 111.179 300.539 111.179 302.718V309.803C111.179 311.982 110.038 313.225 107.927 313.225C105.817 313.225 104.676 311.982 104.676 309.803V302.718ZM106.821 309.939C106.821 310.909 107.243 311.274 107.961 311.274C108.68 311.274 109.102 310.909 109.102 309.939V302.581C109.102 301.611 108.68 301.235 107.961 301.235C107.243 301.235 106.821 301.611 106.821 302.581V309.939Z" fill="white"/>
<path d="M119.288 302.821V304.589C119.288 306.768 118.239 307.955 116.094 307.955H115.09V313.066H112.945V299.444H116.094C118.239 299.444 119.288 300.631 119.288 302.821ZM115.09 301.395V305.959H116.094C116.779 305.959 117.144 305.65 117.144 304.681V302.639C117.144 301.658 116.779 301.35 116.094 301.35L115.09 301.395Z" fill="white"/>
<path d="M122.904 305.194H125.847V307.134H122.904V311.127H126.634V313.066H120.805V299.444H126.634V301.395H122.938L122.904 305.194Z" fill="white"/>
<path d="M130.229 303.209V313.066H128.301V299.444H130.982L133.184 307.601V299.444H135.089V313.066H132.887L130.229 303.209Z" fill="white"/>
<path d="M137.016 299.444H139.183V313.065H137.016V299.444Z" fill="white"/>
<path d="M143.003 303.209V313.065H141.086V299.444H143.744L145.946 307.601V299.444H147.851V313.065H145.649L143.003 303.209Z" fill="white"/>
<path d="M153.01 305.479H156.01V309.803C156.01 311.982 154.926 313.225 152.816 313.225C150.705 313.225 149.633 311.982 149.633 309.803V302.718C149.633 300.539 150.774 299.295 152.816 299.295C154.858 299.295 156.01 300.539 156.01 302.718V304.041H154.014V302.581C154.014 301.611 153.58 301.235 152.873 301.235C152.165 301.235 151.732 301.611 151.732 302.581V309.939C151.732 310.909 152.165 311.263 152.873 311.263C153.58 311.263 154.014 310.909 154.014 309.939V307.43H153.033L153.01 305.479Z" fill="white"/>
<path d="M110.004 316.762C113.426 316.762 115.229 318.827 115.229 322.466V323.173H111.874V322.238C111.874 320.618 111.224 320.013 110.095 320.013C108.965 320.013 108.326 320.618 108.326 322.238C108.326 326.881 115.263 327.759 115.263 334.205C115.263 337.822 113.449 339.909 109.969 339.909C106.49 339.909 104.676 337.844 104.676 334.205V332.825H108.03V334.433C108.03 336.053 108.737 336.624 109.867 336.624C110.996 336.624 111.715 336.053 111.715 334.433C111.715 329.79 104.767 328.912 104.767 322.466C104.767 318.827 106.547 316.762 110.004 316.762Z" fill="white"/>
<path d="M117.645 322.443C117.645 318.827 119.55 316.739 123.029 316.739C126.509 316.739 128.425 318.804 128.425 322.443V334.183C128.425 337.799 126.52 339.887 123.029 339.887C119.538 339.887 117.645 337.822 117.645 334.183V322.443ZM121.193 334.411C121.193 336.031 121.9 336.635 123.029 336.635C124.159 336.635 124.877 336.031 124.877 334.411V322.215C124.877 320.595 124.159 319.991 123.029 319.991C121.9 319.991 121.193 320.595 121.193 322.215V334.411Z" fill="white"/>
<path d="M131.062 322.443C131.062 318.827 132.968 316.739 136.459 316.739C139.95 316.739 141.843 318.804 141.843 322.443V334.183C141.843 337.799 139.938 339.887 136.459 339.887C132.979 339.887 131.062 337.822 131.062 334.183V322.443ZM134.622 334.411C134.622 336.031 135.329 336.635 136.459 336.635C137.588 336.635 138.295 336.031 138.295 334.411V322.215C138.295 320.595 137.588 319.991 136.459 319.991C135.329 319.991 134.622 320.595 134.622 322.215V334.411Z" fill="white"/>
<path d="M147.944 323.242V339.613H144.75V317.013H149.199L152.85 330.543V317.013H156.01V339.613H152.359L147.944 323.242Z" fill="white"/>
<path d="M421.024 290.203H338.211V348.956H421.024V290.203Z" fill="#06468A" stroke="#263238" stroke-width="0.895581" stroke-linecap="round" stroke-linejoin="round"/>
<path d="M353.945 302.718C353.945 300.539 355.086 299.295 357.197 299.295C359.307 299.295 360.448 300.539 360.448 302.718V309.803C360.448 311.982 359.307 313.225 357.197 313.225C355.086 313.225 353.945 311.982 353.945 309.803V302.718ZM356.09 309.939C356.09 310.909 356.512 311.274 357.231 311.274C357.95 311.274 358.372 310.909 358.372 309.939V302.581C358.372 301.611 357.95 301.235 357.231 301.235C356.512 301.235 356.09 301.611 356.09 302.581V309.939Z" fill="white"/>
<path d="M368.562 302.821V304.589C368.562 306.768 367.512 307.955 365.367 307.955H364.364V313.066H362.219V299.444H365.367C367.512 299.444 368.562 300.631 368.562 302.821ZM364.364 301.395V305.959H365.367C366.052 305.959 366.417 305.65 366.417 304.681V302.639C366.417 301.658 366.052 301.35 365.367 301.35L364.364 301.395Z" fill="white"/>
<path d="M372.18 305.194H375.124V307.134H372.18V311.127H375.877V313.066H370.047V299.444H375.877V301.395H372.18V305.194Z" fill="white"/>
<path d="M379.503 303.209V313.065H377.621V299.444H380.302L382.504 307.601V299.444H384.409V313.065H382.184L379.503 303.209Z" fill="white"/>
<path d="M386.289 299.444H388.434V313.066H386.289V299.444Z" fill="white"/>
<path d="M392.28 303.209V313.066H390.363V299.444H393.044L395.246 307.601V299.444H397.151V313.066H394.949L392.28 303.209Z" fill="white"/>
<path d="M402.283 305.479H405.284V309.803C405.284 311.982 404.2 313.225 402.089 313.225C399.979 313.225 398.906 311.982 398.906 309.803V302.718C398.906 300.539 399.99 299.295 402.089 299.295C404.188 299.295 405.284 300.539 405.284 302.718V304.041H403.264V302.581C403.264 301.611 402.831 301.235 402.123 301.235C401.416 301.235 400.983 301.611 400.983 302.581V309.939C400.983 310.909 401.416 311.263 402.123 311.263C402.831 311.263 403.264 310.909 403.264 309.939V307.43H402.283V305.479Z" fill="white"/>
<path d="M359.273 316.762C362.696 316.762 364.498 318.827 364.498 322.466V323.173H361.144V322.238C361.144 320.618 360.494 320.013 359.364 320.013C358.235 320.013 357.596 320.618 357.596 322.238C357.596 326.881 364.532 327.759 364.532 334.205C364.532 337.822 362.718 339.909 359.239 339.909C355.759 339.909 353.945 337.844 353.945 334.205V332.825H357.299V334.433C357.299 336.053 358.007 336.624 359.136 336.624C360.266 336.624 360.984 336.053 360.984 334.433C360.984 329.79 354.037 328.912 354.037 322.466C354.037 318.827 355.816 316.762 359.273 316.762Z" fill="white"/>
<path d="M366.922 322.443C366.922 318.827 368.827 316.739 372.307 316.739C375.786 316.739 377.703 318.804 377.703 322.443V334.183C377.703 337.799 375.798 339.887 372.307 339.887C368.816 339.887 366.922 337.822 366.922 334.183V322.443ZM370.47 334.411C370.47 336.031 371.177 336.635 372.307 336.635C373.436 336.635 374.155 336.031 374.155 334.411V322.215C374.155 320.595 373.436 319.991 372.307 319.991C371.177 319.991 370.47 320.595 370.47 322.215V334.411Z" fill="white"/>
<path d="M380.336 322.443C380.336 318.827 382.241 316.739 385.732 316.739C389.223 316.739 391.117 318.804 391.117 322.443V334.183C391.117 337.799 389.212 339.887 385.732 339.887C382.253 339.887 380.336 337.822 380.336 334.183V322.443ZM383.895 334.411C383.895 336.031 384.603 336.635 385.732 336.635C386.862 336.635 387.569 336.031 387.569 334.411V322.215C387.569 320.595 386.862 319.991 385.732 319.991C384.603 319.991 383.895 320.595 383.895 322.215V334.411Z" fill="white"/>
<path d="M397.218 323.242V339.613H394.023V317.013H398.473L402.123 330.543V317.013H405.284V339.613H401.633L397.218 323.242Z" fill="white"/>
<path d="M407.737 220.943C407.737 220.943 443.445 224.479 461.55 246.611C461.55 246.611 480.671 220.965 515.01 221.513C523.408 211.391 528.757 199.091 530.434 186.046C532.112 173.001 530.048 159.747 524.483 147.83C518.919 135.913 510.083 125.822 499.005 118.732C487.927 111.643 475.062 107.847 461.91 107.787C448.758 107.727 435.859 111.405 424.716 118.392C413.574 125.38 404.646 135.39 398.973 147.256C393.299 159.122 391.114 172.356 392.672 185.415C394.23 198.475 399.466 210.824 407.771 221.022L407.737 220.943Z" fill="#06468A"/>
<path opacity="0.5" d="M407.737 220.943C407.737 220.943 443.445 224.479 461.55 246.611C461.55 246.611 480.671 220.965 515.01 221.513C523.408 211.391 528.757 199.091 530.434 186.046C532.112 173.001 530.048 159.747 524.483 147.83C518.919 135.913 510.083 125.822 499.005 118.732C487.927 111.643 475.062 107.847 461.91 107.787C448.758 107.727 435.859 111.405 424.716 118.392C413.574 125.38 404.646 135.39 398.973 147.256C393.299 159.122 391.114 172.356 392.672 185.415C394.23 198.475 399.466 210.824 407.771 221.022L407.737 220.943Z" fill="white"/>
<path d="M460.366 112.688L459.156 396.643H465.191L460.366 112.688Z" fill="#828282"/>
<path d="M462.167 239.869C462.167 239.869 474.226 218.193 495.925 211.542C495.925 211.542 473.017 216.961 461.574 235.648L462.167 239.869Z" fill="#828282"/>
<path d="M461.266 179.587C461.266 179.587 474.226 156.691 495.924 150.062C495.924 150.062 472.811 156.349 461.357 175.035L461.266 179.587Z" fill="#828282"/>
<path d="M461.62 209.9C461.62 209.9 474.226 187.425 495.925 180.797C495.925 180.797 473.017 186.227 461.574 204.914L461.62 209.9Z" fill="#828282"/>
<path d="M460.387 194.065C460.387 194.065 448.751 172.389 427.816 165.726C427.816 165.726 449.914 171.156 460.969 189.843L460.387 194.065Z" fill="#828282"/>
<path d="M460.387 224.194C460.387 224.194 448.751 202.518 427.816 195.867C427.816 195.867 449.914 201.298 460.969 219.973L460.387 224.194Z" fill="#828282"/>
<path d="M484.631 392.103H436.75V403.089H484.631V392.103Z" fill="white" stroke="#263238" stroke-linecap="round" stroke-linejoin="round"/>
<path d="M489.262 403.169H24.0156V411.702H489.262V403.169Z" fill="white" stroke="#263238" stroke-linecap="round" stroke-linejoin="round"/>
<path d="M0 411.703H516.8" stroke="#263238" stroke-miterlimit="10"/>
</svg>
