<svg width="20" height="20" viewBox="0 0 20 20" fill="none" xmlns="http://www.w3.org/2000/svg">
<path fill-rule="evenodd" clip-rule="evenodd" d="M15.1595 13.6581C16.4793 11.9566 17.1013 9.81627 16.8989 7.67244C16.6966 5.52862 15.6852 3.5424 14.0704 2.11786C12.4556 0.693311 10.3587 -0.0625465 8.2064 0.00405526C6.05408 0.070657 4.00798 0.954715 2.48434 2.47638C0.959386 3.99909 0.0724375 6.04599 0.00424425 8.19994C-0.063949 10.3539 0.691745 12.4528 2.11733 14.0689C3.54291 15.6851 5.53109 16.6968 7.67672 16.8979C9.82234 17.0991 11.9639 16.4745 13.665 15.1515L13.7106 15.1991L18.2002 19.6898C18.2985 19.7882 18.4153 19.8662 18.5438 19.9194C18.6722 19.9726 18.8099 20 18.949 20C19.0881 20 19.2258 19.9726 19.3542 19.9194C19.4827 19.8662 19.5995 19.7882 19.6978 19.6898C19.7961 19.5915 19.8741 19.4748 19.9274 19.3463C19.9806 19.2178 20.008 19.0801 20.008 18.941C20.008 18.802 19.9806 18.6643 19.9274 18.5358C19.8741 18.4073 19.7961 18.2906 19.6978 18.1922L15.2071 13.7026L15.1595 13.6581ZM12.9623 3.97398C13.5598 4.56189 14.0351 5.26229 14.3606 6.03479C14.6861 6.80728 14.8555 7.63659 14.8589 8.47486C14.8623 9.31313 14.6997 10.1438 14.3805 10.9189C14.0613 11.694 13.5918 12.3983 12.999 12.991C12.4062 13.5838 11.702 14.0533 10.9269 14.3725C10.1518 14.6918 9.3211 14.8543 8.48283 14.8509C7.64455 14.8475 6.81525 14.6782 6.04275 14.3526C5.27026 14.0271 4.56986 13.5519 3.98195 12.9543C2.80706 11.7601 2.15165 10.1501 2.15847 8.47486C2.16529 6.79964 2.8338 5.19497 4.01837 4.0104C5.20294 2.82583 6.8076 2.15732 8.48283 2.1505C10.1581 2.14368 11.7681 2.7991 12.9623 3.97398Z" fill="#73787B"/>
</svg>
