<svg width="181" height="35" viewBox="0 0 181 35" fill="none" xmlns="http://www.w3.org/2000/svg">
<path d="M8.576 27.432C6.584 27.432 4.832 26.94 3.32 25.956C1.832 24.972 0.788 23.652 0.188 21.996L3.32 20.52C3.848 21.624 4.568 22.5 5.48 23.148C6.416 23.796 7.448 24.12 8.576 24.12C9.536 24.12 10.316 23.904 10.916 23.472C11.516 23.04 11.816 22.452 11.816 21.708C11.816 21.228 11.684 20.844 11.42 20.556C11.156 20.244 10.82 19.992 10.412 19.8C10.028 19.608 9.632 19.464 9.224 19.368L6.164 18.504C4.484 18.024 3.224 17.304 2.384 16.344C1.568 15.36 1.16 14.22 1.16 12.924C1.16 11.748 1.46 10.728 2.06 9.864C2.66 8.976 3.488 8.292 4.544 7.812C5.6 7.332 6.788 7.092 8.108 7.092C9.884 7.092 11.468 7.536 12.86 8.424C14.252 9.288 15.236 10.5 15.812 12.06L12.68 13.536C12.296 12.6 11.684 11.856 10.844 11.304C10.028 10.752 9.104 10.476 8.072 10.476C7.184 10.476 6.476 10.692 5.948 11.124C5.42 11.532 5.156 12.072 5.156 12.744C5.156 13.2 5.276 13.584 5.516 13.896C5.756 14.184 6.068 14.424 6.452 14.616C6.836 14.784 7.232 14.928 7.64 15.048L10.808 15.984C12.416 16.44 13.652 17.16 14.516 18.144C15.38 19.104 15.812 20.256 15.812 21.6C15.812 22.752 15.5 23.772 14.876 24.66C14.276 25.524 13.436 26.208 12.356 26.712C11.276 27.192 10.016 27.432 8.576 27.432ZM19.7979 27V7.524H23.8659V27H19.7979ZM19.7979 4.86V0.179998H23.8659V4.86H19.7979ZM34.4541 27.432C33.1341 27.432 31.9701 27.204 30.9621 26.748C29.9781 26.268 29.2101 25.62 28.6581 24.804C28.1061 23.964 27.8301 22.98 27.8301 21.852C27.8301 20.796 28.0581 19.848 28.5141 19.008C28.9941 18.168 29.7261 17.46 30.7101 16.884C31.6941 16.308 32.9301 15.9 34.4181 15.66L41.1861 14.544V17.748L35.2101 18.792C34.1301 18.984 33.3381 19.332 32.8341 19.836C32.3301 20.316 32.0781 20.94 32.0781 21.708C32.0781 22.452 32.3541 23.064 32.9061 23.544C33.4821 24 34.2141 24.228 35.1021 24.228C36.2061 24.228 37.1661 23.988 37.9821 23.508C38.8221 23.028 39.4701 22.392 39.9261 21.6C40.3821 20.784 40.6101 19.884 40.6101 18.9V13.896C40.6101 12.936 40.2501 12.156 39.5301 11.556C38.8341 10.932 37.8981 10.62 36.7221 10.62C35.6421 10.62 34.6941 10.908 33.8781 11.484C33.0861 12.036 32.4981 12.756 32.1141 13.644L28.7301 11.952C29.0901 10.992 29.6781 10.152 30.4941 9.432C31.3101 8.688 32.2581 8.112 33.3381 7.704C34.4421 7.296 35.6061 7.092 36.8301 7.092C38.3661 7.092 39.7221 7.38 40.8981 7.956C42.0981 8.532 43.0221 9.336 43.6701 10.368C44.3421 11.376 44.6781 12.552 44.6781 13.896V27H40.7901V23.472L41.6181 23.58C41.1621 24.372 40.5741 25.056 39.8541 25.632C39.1581 26.208 38.3541 26.652 37.4421 26.964C36.5541 27.276 35.5581 27.432 34.4541 27.432ZM49.4346 34.2V7.524H53.3226V11.556L52.8546 10.62C53.5746 9.516 54.5346 8.652 55.7346 8.028C56.9346 7.404 58.3026 7.092 59.8386 7.092C61.6866 7.092 63.3426 7.536 64.8066 8.424C66.2946 9.312 67.4586 10.524 68.2986 12.06C69.1626 13.596 69.5946 15.324 69.5946 17.244C69.5946 19.164 69.1626 20.892 68.2986 22.428C67.4586 23.964 66.3066 25.188 64.8426 26.1C63.3786 26.988 61.7106 27.432 59.8386 27.432C58.3266 27.432 56.9466 27.12 55.6986 26.496C54.4746 25.872 53.5266 24.972 52.8546 23.796L53.5026 23.04V34.2H49.4346ZM59.4426 23.652C60.5946 23.652 61.6146 23.376 62.5026 22.824C63.3906 22.272 64.0866 21.516 64.5906 20.556C65.1186 19.572 65.3826 18.468 65.3826 17.244C65.3826 16.02 65.1186 14.928 64.5906 13.968C64.0866 13.008 63.3906 12.252 62.5026 11.7C61.6146 11.148 60.5946 10.872 59.4426 10.872C58.3146 10.872 57.2946 11.148 56.3826 11.7C55.4946 12.252 54.7866 13.008 54.2586 13.968C53.7546 14.928 53.5026 16.02 53.5026 17.244C53.5026 18.468 53.7546 19.572 54.2586 20.556C54.7866 21.516 55.4946 22.272 56.3826 22.824C57.2946 23.376 58.3146 23.652 59.4426 23.652ZM101.142 27.432C99.1504 27.432 97.3984 26.94 95.8864 25.956C94.3984 24.972 93.3544 23.652 92.7544 21.996L95.8864 20.52C96.4144 21.624 97.1344 22.5 98.0464 23.148C98.9824 23.796 100.014 24.12 101.142 24.12C102.102 24.12 102.882 23.904 103.482 23.472C104.082 23.04 104.382 22.452 104.382 21.708C104.382 21.228 104.25 20.844 103.986 20.556C103.722 20.244 103.386 19.992 102.978 19.8C102.594 19.608 102.198 19.464 101.79 19.368L98.7304 18.504C97.0504 18.024 95.7904 17.304 94.9504 16.344C94.1344 15.36 93.7264 14.22 93.7264 12.924C93.7264 11.748 94.0264 10.728 94.6264 9.864C95.2264 8.976 96.0544 8.292 97.1104 7.812C98.1664 7.332 99.3544 7.092 100.674 7.092C102.45 7.092 104.034 7.536 105.426 8.424C106.818 9.288 107.802 10.5 108.378 12.06L105.246 13.536C104.862 12.6 104.25 11.856 103.41 11.304C102.594 10.752 101.67 10.476 100.638 10.476C99.7504 10.476 99.0424 10.692 98.5144 11.124C97.9864 11.532 97.7224 12.072 97.7224 12.744C97.7224 13.2 97.8424 13.584 98.0824 13.896C98.3224 14.184 98.6344 14.424 99.0184 14.616C99.4024 14.784 99.7984 14.928 100.206 15.048L103.374 15.984C104.982 16.44 106.218 17.16 107.082 18.144C107.946 19.104 108.378 20.256 108.378 21.6C108.378 22.752 108.066 23.772 107.442 24.66C106.842 25.524 106.002 26.208 104.922 26.712C103.842 27.192 102.582 27.432 101.142 27.432ZM121.508 27.432C119.564 27.432 117.836 26.988 116.324 26.1C114.836 25.188 113.672 23.964 112.832 22.428C111.992 20.868 111.572 19.128 111.572 17.208C111.572 15.24 111.992 13.5 112.832 11.988C113.696 10.476 114.848 9.288 116.288 8.424C117.728 7.536 119.36 7.092 121.184 7.092C122.648 7.092 123.956 7.344 125.108 7.848C126.26 8.352 127.232 9.048 128.024 9.936C128.816 10.8 129.416 11.796 129.824 12.924C130.256 14.052 130.472 15.252 130.472 16.524C130.472 16.836 130.46 17.16 130.436 17.496C130.412 17.832 130.364 18.144 130.292 18.432H114.776V15.192H127.988L126.044 16.668C126.284 15.492 126.2 14.448 125.792 13.536C125.408 12.6 124.808 11.868 123.992 11.34C123.2 10.788 122.264 10.512 121.184 10.512C120.104 10.512 119.144 10.788 118.304 11.34C117.464 11.868 116.816 12.636 116.36 13.644C115.904 14.628 115.724 15.828 115.82 17.244C115.7 18.564 115.88 19.716 116.36 20.7C116.864 21.684 117.56 22.452 118.448 23.004C119.36 23.556 120.392 23.832 121.544 23.832C122.72 23.832 123.716 23.568 124.532 23.04C125.372 22.512 126.032 21.828 126.512 20.988L129.824 22.608C129.44 23.52 128.84 24.348 128.024 25.092C127.232 25.812 126.272 26.388 125.144 26.82C124.04 27.228 122.828 27.432 121.508 27.432ZM139.158 27L132.462 7.524H136.782L141.894 23.04H140.382L145.602 7.524H149.31L154.494 23.04H152.982L158.13 7.524H162.45L155.718 27H152.046L146.79 11.124H148.122L142.866 27H139.158ZM170.368 27.432C169.048 27.432 167.884 27.204 166.876 26.748C165.892 26.268 165.124 25.62 164.572 24.804C164.02 23.964 163.744 22.98 163.744 21.852C163.744 20.796 163.972 19.848 164.428 19.008C164.908 18.168 165.64 17.46 166.624 16.884C167.608 16.308 168.844 15.9 170.332 15.66L177.1 14.544V17.748L171.124 18.792C170.044 18.984 169.252 19.332 168.748 19.836C168.244 20.316 167.992 20.94 167.992 21.708C167.992 22.452 168.268 23.064 168.82 23.544C169.396 24 170.128 24.228 171.016 24.228C172.12 24.228 173.08 23.988 173.896 23.508C174.736 23.028 175.384 22.392 175.84 21.6C176.296 20.784 176.524 19.884 176.524 18.9V13.896C176.524 12.936 176.164 12.156 175.444 11.556C174.748 10.932 173.812 10.62 172.636 10.62C171.556 10.62 170.608 10.908 169.792 11.484C169 12.036 168.412 12.756 168.028 13.644L164.644 11.952C165.004 10.992 165.592 10.152 166.408 9.432C167.224 8.688 168.172 8.112 169.252 7.704C170.356 7.296 171.52 7.092 172.744 7.092C174.28 7.092 175.636 7.38 176.812 7.956C178.012 8.532 178.936 9.336 179.584 10.368C180.256 11.376 180.592 12.552 180.592 13.896V27H176.704V23.472L177.532 23.58C177.076 24.372 176.488 25.056 175.768 25.632C175.072 26.208 174.268 26.652 173.356 26.964C172.468 27.276 171.472 27.432 170.368 27.432Z" fill="#2C3941"/>
<path d="M74.1638 19.044V15.444H88.5638V19.044H74.1638Z" fill="#3498DB"/>
</svg>
